# xmcd
#
# Track frame offsets:
#	150
#	14424
#	31346
#	40602
#	53168
#	64049
#	78193
#	95556
#	109743
#	117808
#	131382
#	149656
#	162022
#	178159
#	191999
#	216832
#
# Disc length: 3028 seconds
#
# Revision: 0
# Processed by: cddbd v1.5.2PL0 Copyright (c) Steve Scherf et al.
# Submitted via: audiograbber 1.83.01
#
DISCID=dc0bd210
DTITLE=Dolly Parton - Karaoke Ctry Gospel
DYEAR=2012
DGENRE=Gospel
TTITLE0=Dolly Parton - The Seeker
TTITLE1=Loretta Lynn - Precious Memories
TTITLE2=Alan Jackson - Tis So Sweet To Trust In Jesus
TTITLE3=Elvis Presley - Crying In The Chapel
TTITLE4=Gene Watson - The City
TTITLE5=Loretta Lynn - Old Rugged Cross
TTITLE6=Emmylou Harris - Wayfaring Stranger
TTITLE7=Audrey and Hank Williams - Jesus Remembered Me
TTITLE8=Alan Jackson - Leaning On The Everlasting Arms
TTITLE9=Walter Brennan - Old Rivers
TTITLE10=Loretta Lynn - What A Friend We Have In Jesus
TTITLE11=Patsy Cline - Dear God
TTITLE12=Elvis Presley - Where Could I Go
TTITLE13=Alan Jackson - I Love To Tel The Story
TTITLE14=Dolly Parton - Shine
TTITLE15=Elvis Presley - TracIf We Never Meet Again 16
EXTD=
EXTT0=
EXTT1=
EXTT2=
EXTT3=
EXTT4=
EXTT5=
EXTT6=
EXTT7=
EXTT8=
EXTT9=
EXTT10=
EXTT11=
EXTT12=
EXTT13=
EXTT14=
EXTT15=
PLAYORDER=
